<svg xmlns="http://www.w3.org/2000/svg" viewBox="0 0 1280 600" width="1280" height="600">
  <defs>
    <marker id="arrowA" markerWidth="10" markerHeight="7" refX="9" refY="3.5" orient="auto">
      <polygon points="0 0, 10 3.5, 0 7" fill="#c9c5b6"/>
    </marker>
    <marker id="arrowB" markerWidth="10" markerHeight="7" refX="9" refY="3.5" orient="auto">
      <polygon points="0 0, 10 3.5, 0 7" fill="#6fd1b4"/>
    </marker>
    <marker id="arrowC" markerWidth="10" markerHeight="7" refX="9" refY="3.5" orient="auto">
      <polygon points="0 0, 10 3.5, 0 7" fill="#c9c5b6"/>
    </marker>
    <marker id="arrowE" markerWidth="10" markerHeight="7" refX="9" refY="3.5" orient="auto">
      <polygon points="0 0, 10 3.5, 0 7" fill="#c9c5b6"/>
    </marker>
    <marker id="arrowF" markerWidth="10" markerHeight="7" refX="9" refY="3.5" orient="auto">
      <polygon points="0 0, 10 3.5, 0 7" fill="#8b8899"/>
    </marker>
    <marker id="arrowG" markerWidth="10" markerHeight="7" refX="9" refY="3.5" orient="auto">
      <polygon points="0 0, 10 3.5, 0 7" fill="#e6a562"/>
    </marker>
    <marker id="arrowH" markerWidth="10" markerHeight="7" refX="9" refY="3.5" orient="auto">
      <polygon points="0 0, 10 3.5, 0 7" fill="#8b8899"/>
    </marker>
    <filter id="editorialGrain" x="0" y="0" width="100%" height="100%">
      <feTurbulence type="fractalNoise" baseFrequency="0.9" numOctaves="2" stitchTiles="stitch"/>
      <feColorMatrix values="0 0 0 0 1  0 0 0 0 1  0 0 0 0 1  0 0 0 0.08 0"/>
    </filter>
    <radialGradient id="editorialTopGlow" cx="50%" cy="0%" r="80%">
      <stop offset="0%" stop-color="#e6a562" stop-opacity="0.12"/>
      <stop offset="100%" stop-color="#e6a562" stop-opacity="0"/>
    </radialGradient>
    <style>
    text { font-family: 'Inter', 'Noto Sans', 'Helvetica Neue', 'DejaVu Sans', sans-serif; }
    .title { font-size: 46px; font-weight: 700; fill: #f5efe0; font-family: 'Playfair Display', 'Noto Serif Display', 'DejaVu Serif', Georgia, serif; }
    .subtitle { font-size: 12px; font-weight: 500; fill: #e6a562; letter-spacing: 0.3em; text-transform: uppercase; }
    .section { font-size: 13px; font-weight: 700; fill: #f5efe0; letter-spacing: 1.4px; }
    .section-sub { font-size: 12px; font-weight: 500; fill: #b5b3a8; }
    .node-title { font-size: 18px; font-weight: 700; fill: #f5efe0; }
    .node-sub { font-size: 12px; font-weight: 500; fill: #d4cfbf; }
    .node-type { font-size: 10px; font-weight: 700; fill: #b5b3a8; letter-spacing: 0.08em; }
    .arrow-label { font-size: 12px; font-weight: 600; fill: #c9c5b6; }
    .legend { font-size: 12px; font-weight: 500; fill: #d4cfbf; }
    .footnote { font-size: 12px; font-weight: 500; fill: #b5b3a8; }
    </style>
  </defs>
  <rect width="1280.0" height="600.0" fill="#15151e"/>
  <rect width="1280.0" height="330.0" fill="url(#editorialTopGlow)"/>
  <rect width="1280.0" height="600.0" filter="url(#editorialGrain)" opacity="0.6"/>
  <text x="640.0" y="56" text-anchor="middle" class="title">Printer Compatibility</text>
  <text x="640.0" y="82" text-anchor="middle" class="subtitle">Same protocol family — same code · different command set or transport — out of scope</text>
  <rect x="360.0" y="140.0" width="320.0" height="380.0" rx="16.0" fill="none" stroke="rgba(245,239,224,0.12)" stroke-width="1.4"/>
  <text x="378.0" y="164.0" class="section">OK // WORKS</text>
  <rect x="720.0" y="140.0" width="480.0" height="380.0" rx="16.0" fill="none" stroke="rgba(245,239,224,0.12)" stroke-width="1.4"/>
  <text x="738.0" y="164.0" class="section">NO // OUT OF SCOPE (for now)</text>
  <path d="M 280.0,315.0 L 300.4,315.0 L 379.6,245.0 L 400.0,245.0" fill="none" stroke="#c9c5b6" stroke-width="1.6" marker-end="url(#arrowA)"/>
  <path d="M 280.0,315.0 L 300.4,315.0 L 379.6,345.0 L 400.0,345.0" fill="none" stroke="#c9c5b6" stroke-width="1.6" marker-end="url(#arrowA)"/>
  <path d="M 280.0,315.0 L 300.4,315.0 L 379.6,435.0 L 400.0,435.0" fill="none" stroke="#c9c5b6" stroke-width="1.6" marker-end="url(#arrowA)"/>
  <path d="M 280.0,315.0 L 300.4,315.0 L 739.6,235.0 L 760.0,235.0" fill="none" stroke="#8b8899" stroke-width="1.6" marker-end="url(#arrowF)" stroke-dasharray="6,4"/>
  <path d="M 280.0,315.0 L 300.4,315.0 L 739.6,325.0 L 760.0,325.0" fill="none" stroke="#8b8899" stroke-width="1.6" marker-end="url(#arrowF)" stroke-dasharray="6,4"/>
  <path d="M 280.0,315.0 L 959.6,315.0 L 959.6,280.0 L 980.0,280.0" fill="none" stroke="#8b8899" stroke-width="1.6" marker-end="url(#arrowF)" stroke-dasharray="6,4"/>
  <rect x="40.0" y="250.0" width="240.0" height="130.0" rx="8.0" fill="#24222f" stroke="#e6a562" stroke-width="2.0"/>
  <rect x="46.0" y="256.0" width="228.0" height="118.0" rx="5.0" fill="none" stroke="#e6a562" stroke-width="1.2" opacity="0.65"/>
  <text x="160.0" y="268.0" text-anchor="middle" class="node-type">ROOT</text>
  <text x="160.0" y="321.0" text-anchor="middle" class="node-title">this project</text>
  <text x="160.0" y="343.0" text-anchor="middle" class="node-sub">PT-P750W command set</text>
  <rect x="400.0" y="200.0" width="240.0" height="90.0" rx="8.0" fill="#24222f" stroke="#6fd1b4" stroke-width="2.0"/>
  <rect x="406.0" y="206.0" width="228.0" height="78.0" rx="5.0" fill="none" stroke="#6fd1b4" stroke-width="1.2" opacity="0.65"/>
  <text x="520.0" y="218.0" text-anchor="middle" class="node-type">PRIMARY</text>
  <text x="520.0" y="251.0" text-anchor="middle" class="node-title">PT-P750W</text>
  <text x="520.0" y="273.0" text-anchor="middle" class="node-sub">half-cut · Wi-Fi</text>
  <rect x="400.0" y="310.0" width="240.0" height="70.0" rx="8.0" fill="#24222f" stroke="#6fd1b4" stroke-width="1.8"/>
  <text x="520.0" y="345.0" text-anchor="middle" class="node-title">PT-P710BT</text>
  <text x="520.0" y="367.0" text-anchor="middle" class="node-sub">Cube Plus</text>
  <rect x="400.0" y="400.0" width="240.0" height="70.0" rx="8.0" fill="#24222f" stroke="#6fd1b4" stroke-width="1.8"/>
  <text x="520.0" y="435.0" text-anchor="middle" class="node-title">PT-E550W</text>
  <rect x="760.0" y="200.0" width="200.0" height="70.0" rx="8.0" fill="#24222f" stroke="rgba(245,239,224,0.18)" stroke-width="1.8"/>
  <text x="860.0" y="235.0" text-anchor="middle" class="node-title">PT-P300BT</text>
  <text x="860.0" y="257.0" text-anchor="middle" class="node-sub">Cube · different cmd set</text>
  <rect x="760.0" y="290.0" width="200.0" height="70.0" rx="8.0" fill="#24222f" stroke="rgba(245,239,224,0.18)" stroke-width="1.8"/>
  <text x="860.0" y="325.0" text-anchor="middle" class="node-title">PT-P910BT</text>
  <text x="860.0" y="347.0" text-anchor="middle" class="node-sub">Cube Pro · different cmd set</text>
  <rect x="980.0" y="200.0" width="200.0" height="160.0" rx="8.0" fill="#24222f" stroke="rgba(245,239,224,0.18)" stroke-width="1.8"/>
  <text x="1080.0" y="280.0" text-anchor="middle" class="node-title">QL · Dymo · Zebra</text>
  <text x="1080.0" y="302.0" text-anchor="middle" class="node-sub">different protocol entirely</text>
  <rect x="471.0" y="261.0" width="98" height="20" rx="6" fill="#15151e" opacity="1"/>
  <text x="520.0" y="275.0" text-anchor="middle" class="arrow-label">incompatible</text>
  <rect x="563.8" y="301.0" width="112" height="20" rx="6" fill="#15151e" opacity="1"/>
  <text x="619.8" y="315.0" text-anchor="middle" class="arrow-label">wrong protocol</text>
  <line x1="40.0" y1="540.0" x2="70.0" y2="540.0" stroke="#c9c5b6" stroke-width="1.6" marker-end="url(#arrowA)"/>
  <text x="80.0" y="544.0" class="legend">Same command family — works today</text>
  <line x1="40.0" y1="562.0" x2="70.0" y2="562.0" stroke="#8b8899" stroke-width="1.6" marker-end="url(#arrowF)"/>
  <text x="80.0" y="566.0" class="legend">Out of scope (for now) — different command set or protocol</text>
</svg>